<svg xmlns="http://www.w3.org/2000/svg" xmlns:xlink="http://www.w3.org/1999/xlink" width="1925" zoomAndPan="magnify" viewBox="0 0 1443.75 272.250005" height="363" preserveAspectRatio="xMidYMid meet" version="1.0"><defs><g/><clipPath id="cd261406a8"><path d="M 52 23 L 566 23 L 566 187 L 52 187 Z M 52 23 " clip-rule="nonzero"/></clipPath><clipPath id="e5c880c619"><path d="M 38.335938 77.621094 L 550.902344 5.144531 L 568.8125 131.804688 L 56.246094 204.28125 Z M 38.335938 77.621094 " clip-rule="nonzero"/></clipPath><clipPath id="38c2a955be"><path d="M 38.335938 77.621094 L 550.902344 5.144531 L 568.8125 131.804688 L 56.246094 204.28125 Z M 38.335938 77.621094 " clip-rule="nonzero"/></clipPath><clipPath id="184bf408f1"><path d="M 1279.71875 19.609375 L 1385.195312 19.609375 L 1385.195312 252.261719 L 1279.71875 252.261719 Z M 1279.71875 19.609375 " clip-rule="nonzero"/></clipPath><clipPath id="338bfa6d48"><path d="M 1303 32 L 1385.195312 32 L 1385.195312 115 L 1303 115 Z M 1303 32 " clip-rule="nonzero"/></clipPath><clipPath id="116c2e2cf3"><path d="M 1303 19.609375 L 1328 19.609375 L 1328 75 L 1303 75 Z M 1303 19.609375 " clip-rule="nonzero"/></clipPath><clipPath id="8fdf81e9c6"><path d="M 1360 19.609375 L 1385.195312 19.609375 L 1385.195312 75 L 1360 75 Z M 1360 19.609375 " clip-rule="nonzero"/></clipPath><clipPath id="b69c581f78"><path d="M 1279.71875 107 L 1378 107 L 1378 227 L 1279.71875 227 Z M 1279.71875 107 " clip-rule="nonzero"/></clipPath><clipPath id="9e54b09d89"><path d="M 1279.71875 179 L 1322 179 L 1322 224 L 1279.71875 224 Z M 1279.71875 179 " clip-rule="nonzero"/></clipPath><clipPath id="f7daabf3c5"><path d="M 1296 229 L 1343 229 L 1343 252.261719 L 1296 252.261719 Z M 1296 229 " clip-rule="nonzero"/></clipPath></defs><g clip-path="url(#cd261406a8)"><g clip-path="url(#e5c880c619)"><g clip-path="url(#38c2a955be)"><path fill="#889ead" d="M 556.527344 104.109375 C 534.9375 107.699219 513.410156 110.957031 491.761719 114.125 C 472.097656 116.15625 452.460938 118.394531 432.722656 120.652344 C 426.382812 121.332031 420.164062 122.105469 413.824219 122.785156 C 429.011719 120.960938 444.183594 119.03125 459.359375 117.097656 C 484.117188 113.917969 508.738281 110.546875 533.421875 106.839844 C 535.84375 106.5 538.140625 106.066406 540.558594 105.722656 C 544.644531 105.039062 548.152344 101.003906 547.332031 96.726562 C 546.511719 92.445312 542.761719 89.441406 538.332031 89.957031 C 522.40625 91.890625 506.496094 93.925781 490.601562 96.0625 C 490.574219 95.855469 490.527344 95.539062 490.5 95.328125 C 490.066406 93.03125 488.957031 91.257812 487.292969 90.101562 C 492.191406 89.085938 496.984375 88.085938 501.878906 87.074219 C 503.546875 86.730469 505.214844 86.386719 506.777344 86.058594 C 511.722656 85.359375 516.679688 84.765625 521.621094 84.066406 C 524.144531 83.710938 526.667969 83.351562 529.195312 82.996094 C 533.292969 82.417969 536.769531 78.171875 535.964844 74 C 535.132812 69.613281 531.410156 66.816406 526.964844 67.230469 C 526.648438 67.277344 526.332031 67.320312 526.019531 67.363281 C 529.277344 66.152344 531.71875 62.164062 531.019531 58.726562 C 530.152344 54.128906 526.492188 51.753906 522.015625 51.957031 C 518.9375 52.179688 515.84375 52.292969 512.761719 52.515625 C 513.0625 51.617188 513.140625 50.640625 512.992188 49.589844 C 517.4375 49.175781 521.871094 48.65625 526.316406 48.242188 C 528.960938 47.972656 531.605469 47.707031 534.265625 47.546875 C 538.183594 47.207031 541.074219 43.367188 541.078125 39.613281 C 541.054688 35.652344 538.117188 32.3125 534.183594 31.796875 C 530.789062 31.3125 527.515625 30.917969 524.152344 30.644531 C 523.78125 27.265625 521.007812 23.585938 517.355469 23.5625 C 493.957031 23.441406 470.433594 24.730469 447.074219 26.425781 C 417.660156 28.550781 388.351562 31.40625 359.089844 34.578125 C 327.617188 38.066406 296.097656 41.984375 264.730469 46.207031 C 235.058594 50.296875 205.328125 54.714844 175.777344 59.644531 C 152.097656 63.632812 128.449219 67.835938 105.054688 73.074219 C 102.773438 73.609375 100.488281 74.148438 98.203125 74.683594 C 94.671875 75.503906 91.425781 78.324219 91.3125 82.089844 C 91.105469 82.121094 90.789062 82.164062 90.59375 82.300781 C 86.535156 83.195312 82.972656 86.808594 83.820312 91.296875 C 84.207031 93.28125 85.195312 94.964844 86.546875 96.164062 C 84.246094 96.597656 81.859375 97.148438 79.558594 97.582031 C 75.503906 98.476562 71.953125 102.195312 72.789062 106.582031 C 73.605469 110.859375 77.359375 113.867188 81.789062 113.347656 C 91.914062 112.128906 102.054688 111.019531 112.179688 109.800781 C 105.402344 111.1875 98.644531 112.679688 91.882812 114.171875 C 89.386719 114.738281 87 115.292969 84.503906 115.859375 C 80.460938 116.859375 76.882812 120.367188 77.730469 124.855469 C 78.148438 127.046875 79.242188 128.714844 80.699219 129.902344 C 79.328125 131.597656 78.664062 133.730469 79.082031 135.921875 C 79.929688 140.410156 83.621094 143 88.082031 142.6875 C 91.375 142.4375 94.664062 142.1875 98.058594 141.921875 C 98.101562 142.238281 98.132812 142.445312 98.175781 142.761719 C 98.609375 145.058594 99.703125 146.726562 101.144531 147.808594 C 96.769531 148.75 92.277344 149.601562 87.90625 150.539062 C 85.515625 151.09375 83.21875 151.523438 80.828125 152.078125 C 76.878906 152.957031 74.066406 155.820312 74.011719 160.007812 C 73.992188 162.90625 75.671875 165.671875 78.222656 167.023438 C 78.71875 167.492188 79.320312 167.941406 80.007812 168.273438 C 75.894531 168.746094 71.898438 169.3125 67.78125 169.789062 C 65.152344 170.160156 62.507812 170.425781 59.773438 170.8125 C 55.65625 171.289062 52.195312 175.636719 53 179.808594 C 53.835938 184.195312 57.570312 187.097656 62.003906 186.578125 C 86.503906 183.863281 110.992188 181.042969 135.476562 178.226562 C 166.304688 174.722656 197.132812 171.222656 228.0625 167.707031 C 261.21875 163.984375 294.386719 160.363281 327.558594 156.746094 C 359.042969 153.367188 390.546875 150.089844 422.078125 147.027344 C 447.480469 144.613281 473.003906 142.292969 498.480469 140.40625 C 501.035156 140.257812 503.574219 140.007812 506.125 139.859375 C 510.273438 139.59375 513.675781 134.824219 512.898438 130.863281 C 512.75 129.808594 512.40625 128.894531 511.867188 128.113281 C 513.96875 127.816406 516.195312 127.609375 518.296875 127.3125 C 519.769531 127.101562 521.078125 126.488281 522.234375 125.574219 C 531.894531 124.101562 541.554688 122.628906 551.304688 121.035156 C 553.816406 120.574219 556.339844 120.214844 558.847656 119.753906 C 562.933594 119.070312 566.441406 115.035156 565.621094 110.757812 C 564.726562 106.703125 560.914062 103.273438 556.527344 104.109375 Z M 453.863281 75.207031 C 423.171875 78.90625 392.511719 82.8125 361.863281 86.824219 C 342.273438 89.378906 322.59375 92.054688 303.019531 94.714844 C 301.757812 94.894531 300.375 94.984375 299.113281 95.160156 C 311.777344 92.941406 324.335938 90.738281 337.019531 88.621094 C 340.699219 88.101562 344.484375 87.566406 348.164062 87.046875 C 379.203125 82.765625 410.285156 78.796875 441.324219 75.265625 C 466.457031 72.464844 491.707031 69.75 516.988281 68 C 517.515625 67.925781 518.054688 67.953125 518.582031 67.878906 C 496.917969 70.191406 475.390625 72.699219 453.863281 75.207031 Z M 453.863281 75.207031 " fill-opacity="1" fill-rule="nonzero"/></g></g></g><path fill="#ffffff" d="M 1375.703125 102.589844 L 1369.902344 89.378906 C 1369.953125 89.167969 1370.113281 88.851562 1370.21875 88.746094 L 1384.773438 73.691406 L 1379.605469 20.84375 L 1361.726562 51.214844 L 1344.21875 33.738281 L 1327.339844 50.582031 L 1326.707031 51.214844 L 1309.144531 22 L 1304.1875 74.21875 L 1319.324219 88.535156 L 1312.625 102.535156 L 1313.734375 108.328125 L 1281.140625 180.546875 L 1280.929688 181.019531 L 1305.824219 221.917969 L 1297.597656 230.339844 L 1305.507812 247.394531 L 1342.214844 251.132812 L 1313.207031 237.550781 L 1316.582031 224.023438 L 1326.550781 216.761719 L 1335.460938 222.707031 L 1338.097656 236.550781 L 1339.996094 236.394531 L 1339.996094 225.707031 L 1348.382812 218.234375 L 1348.382812 236.394531 L 1350.28125 236.550781 L 1354.816406 212.550781 L 1376.019531 193.757812 L 1366.578125 150.59375 Z M 1361.726562 51.265625 Z M 1361.726562 51.265625 " fill-opacity="1" fill-rule="nonzero"/><g clip-path="url(#184bf408f1)"><path stroke-linecap="butt" transform="matrix(0.527389, 0, 0, 0.526376, 1280.61402, 19.842906)" fill="none" stroke-linejoin="miter" d="M 180.301754 157.201258 L 169.302692 132.103338 C 169.39898 131.702602 169.702658 131.101499 169.902641 130.901131 L 197.500289 102.300486 L 187.701124 1.901386 L 153.800309 59.599886 L 120.603138 26.398202 L 88.598458 58.397679 L 87.39856 59.599886 L 54.097694 4.098011 L 44.698495 103.302325 L 73.399753 130.500396 L 60.697131 157.097363 L 62.800656 168.102749 L 0.998515 305.302731 L 0.598549 306.200676 L 47.801934 383.898848 L 32.203263 399.898587 L 47.201985 432.298799 L 116.803462 439.400723 L 61.800741 413.597806 L 68.200196 387.898783 L 87.102289 374.10309 L 103.997145 385.397896 L 108.996719 411.698023 L 112.596413 411.401181 L 112.596413 391.097246 L 128.498761 376.900818 L 128.498761 411.401181 L 132.098455 411.698023 L 140.697722 366.103221 L 180.901703 330.400651 L 162.999525 248.398282 Z M 153.800309 59.696359 Z M 153.800309 59.696359 " stroke="#1d7300" stroke-width="1" stroke-opacity="1" stroke-miterlimit="10"/></g><g clip-path="url(#338bfa6d48)"><path fill="#889ead" d="M 1303.554688 72.742188 L 1343.375 33.003906 C 1343.796875 32.582031 1344.535156 32.582031 1344.957031 33.003906 L 1384.773438 72.742188 C 1385.195312 73.164062 1385.195312 73.902344 1384.773438 74.324219 L 1344.957031 114.0625 C 1344.535156 114.484375 1343.796875 114.484375 1343.375 114.0625 L 1303.554688 74.324219 C 1303.132812 73.902344 1303.132812 73.21875 1303.554688 72.742188 Z M 1344.164062 35.371094 L 1305.929688 73.535156 L 1344.164062 111.695312 L 1382.398438 73.535156 C 1382.398438 73.535156 1344.164062 35.371094 1344.164062 35.371094 Z M 1344.164062 35.371094 " fill-opacity="1" fill-rule="nonzero"/></g><g clip-path="url(#116c2e2cf3)"><path fill="#889ead" d="M 1304.347656 74.636719 L 1304.242188 74.636719 C 1303.609375 74.585938 1303.1875 74.058594 1303.238281 73.429688 L 1307.667969 20.84375 C 1307.722656 20.472656 1307.878906 20.160156 1308.195312 20 C 1308.722656 19.683594 1309.410156 19.84375 1309.726562 20.421875 L 1327.550781 50.636719 C 1327.867188 51.058594 1327.816406 51.6875 1327.445312 52.058594 L 1305.136719 74.324219 C 1304.925781 74.535156 1304.664062 74.636719 1304.347656 74.636719 Z M 1305.71875 70.636719 L 1325.230469 51.164062 L 1309.621094 24.527344 Z M 1305.71875 70.636719 " fill-opacity="1" fill-rule="nonzero"/></g><g clip-path="url(#8fdf81e9c6)"><path fill="#889ead" d="M 1360.777344 50.636719 L 1378.601562 20.371094 C 1378.917969 19.84375 1379.605469 19.683594 1380.132812 19.949219 C 1380.449219 20.160156 1380.660156 20.472656 1380.660156 20.789062 L 1385.089844 73.375 C 1385.140625 74.007812 1384.667969 74.535156 1384.085938 74.585938 C 1383.769531 74.636719 1383.453125 74.480469 1383.191406 74.269531 L 1360.882812 52.003906 C 1360.511719 51.6875 1360.460938 51.109375 1360.777344 50.636719 Z M 1378.761719 24.527344 L 1363.097656 51.109375 L 1382.609375 70.585938 Z M 1378.761719 24.527344 " fill-opacity="1" fill-rule="nonzero"/></g><path fill="#889ead" d="M 1314.3125 101.800781 L 1336.359375 107.011719 L 1319.746094 90.429688 Z M 1339.679688 110.117188 L 1312.46875 103.640625 C 1312.414062 103.640625 1312.308594 103.589844 1312.257812 103.589844 C 1311.675781 103.324219 1311.464844 102.640625 1311.730469 102.117188 L 1318.429688 88.113281 C 1318.480469 88.007812 1318.585938 87.851562 1318.640625 87.746094 C 1319.0625 87.324219 1319.800781 87.324219 1320.222656 87.746094 L 1340.738281 108.222656 C 1341 108.484375 1341.105469 108.851562 1341.054688 109.273438 C 1340.84375 109.90625 1340.261719 110.273438 1339.679688 110.117188 Z M 1339.679688 110.117188 " fill-opacity="1" fill-rule="nonzero"/><path fill="#889ead" d="M 1375.914062 103.640625 L 1348.699219 110.117188 C 1348.121094 110.273438 1347.488281 109.90625 1347.382812 109.273438 C 1347.277344 108.90625 1347.433594 108.484375 1347.699219 108.222656 L 1368.214844 87.746094 C 1368.636719 87.324219 1369.375 87.324219 1369.796875 87.746094 C 1369.902344 87.851562 1369.953125 87.957031 1370.007812 88.113281 L 1376.703125 102.117188 C 1376.96875 102.695312 1376.757812 103.324219 1376.175781 103.589844 C 1376.070312 103.640625 1375.964844 103.640625 1375.914062 103.640625 Z M 1352.023438 107.0625 L 1374.066406 101.851562 L 1368.636719 90.484375 Z M 1352.023438 107.0625 " fill-opacity="1" fill-rule="nonzero"/><path fill="#889ead" d="M 1338.785156 109.90625 L 1314.101562 104.0625 L 1338.785156 233.972656 Z M 1312.941406 101.484375 L 1340.101562 107.957031 C 1340.628906 108.0625 1341 108.484375 1341 109.0625 L 1341 245.816406 C 1341 246.34375 1340.628906 246.816406 1340.101562 246.921875 C 1339.523438 247.027344 1338.941406 246.660156 1338.785156 246.027344 L 1311.625 102.851562 C 1311.570312 102.695312 1311.570312 102.484375 1311.625 102.324219 C 1311.78125 101.746094 1312.363281 101.378906 1312.941406 101.484375 Z M 1312.941406 101.484375 " fill-opacity="1" fill-rule="nonzero"/><path fill="#889ead" d="M 1348.226562 107.957031 L 1375.386719 101.484375 C 1375.964844 101.324219 1376.597656 101.695312 1376.703125 102.324219 C 1376.757812 102.484375 1376.757812 102.695312 1376.703125 102.851562 L 1349.492188 245.972656 C 1349.386719 246.554688 1348.804688 246.972656 1348.171875 246.867188 C 1347.644531 246.761719 1347.277344 246.289062 1347.277344 245.761719 L 1347.277344 109.0625 C 1347.328125 108.484375 1347.699219 108.0625 1348.226562 107.957031 Z M 1374.226562 104.0625 L 1349.542969 109.90625 L 1349.542969 233.921875 Z M 1374.226562 104.0625 " fill-opacity="1" fill-rule="nonzero"/><g clip-path="url(#b69c581f78)"><path fill="#889ead" d="M 1341.054688 223.128906 L 1347.328125 217.550781 L 1347.328125 111.695312 L 1344.957031 114.0625 C 1344.535156 114.484375 1343.796875 114.484375 1343.375 114.0625 L 1341 111.695312 L 1341 223.128906 Z M 1349.175781 218.867188 L 1340.738281 226.339844 C 1340.523438 226.550781 1340.261719 226.707031 1339.945312 226.707031 C 1339.3125 226.707031 1338.835938 226.234375 1338.835938 225.601562 L 1338.835938 109.0625 C 1338.835938 108.800781 1338.941406 108.484375 1339.152344 108.273438 C 1339.574219 107.851562 1340.3125 107.851562 1340.738281 108.273438 L 1344.21875 111.75 L 1347.644531 108.328125 C 1347.855469 108.0625 1348.171875 107.957031 1348.488281 107.957031 C 1349.121094 107.957031 1349.597656 108.433594 1349.597656 109.0625 L 1349.597656 218.074219 C 1349.542969 218.339844 1349.4375 218.65625 1349.175781 218.867188 Z M 1313.363281 112.0625 L 1282.40625 180.546875 L 1321.488281 205.652344 C 1321.910156 205.917969 1322.066406 206.390625 1321.960938 206.863281 L 1318.375 221.234375 L 1325.917969 215.707031 C 1326.285156 215.445312 1326.8125 215.445312 1327.183594 215.707031 L 1333.933594 220.234375 Z M 1279.980469 180.546875 L 1312.785156 107.957031 C 1312.941406 107.640625 1313.207031 107.378906 1313.574219 107.328125 C 1314.15625 107.222656 1314.734375 107.589844 1314.894531 108.222656 L 1336.621094 222.445312 C 1336.675781 222.707031 1336.621094 223.023438 1336.464844 223.289062 C 1336.148438 223.8125 1335.410156 223.917969 1334.933594 223.601562 L 1326.601562 218.023438 L 1317.265625 224.8125 C 1317.003906 225.023438 1316.632812 225.128906 1316.265625 225.023438 C 1315.683594 224.867188 1315.316406 224.289062 1315.472656 223.65625 L 1319.640625 207.074219 L 1280.457031 181.863281 C 1279.929688 181.652344 1279.71875 181.019531 1279.980469 180.546875 Z M 1356.453125 209.445312 L 1374.699219 193.285156 L 1366.578125 156.121094 Z M 1376.703125 194.546875 L 1355.554688 213.285156 C 1355.292969 213.550781 1354.921875 213.65625 1354.554688 213.601562 C 1353.972656 213.496094 1353.550781 212.917969 1353.65625 212.285156 L 1365.417969 150.382812 C 1365.472656 149.910156 1365.839844 149.542969 1366.261719 149.4375 C 1366.84375 149.332031 1367.476562 149.699219 1367.582031 150.277344 L 1377.019531 193.441406 C 1377.125 193.863281 1377.019531 194.230469 1376.703125 194.546875 Z M 1376.703125 194.546875 " fill-opacity="1" fill-rule="nonzero"/></g><g clip-path="url(#9e54b09d89)"><path fill="#889ead" d="M 1306.140625 220.179688 L 1319.113281 206.8125 L 1284.410156 184.546875 Z M 1321.644531 207.390625 L 1306.71875 222.761719 C 1306.667969 222.8125 1306.5625 222.867188 1306.507812 222.917969 C 1305.980469 223.234375 1305.296875 223.078125 1304.980469 222.550781 L 1280.085938 181.597656 C 1279.824219 181.230469 1279.824219 180.757812 1280.035156 180.335938 C 1280.351562 179.808594 1281.035156 179.652344 1281.5625 180.019531 L 1321.433594 205.652344 C 1321.488281 205.707031 1321.539062 205.757812 1321.59375 205.8125 C 1322.066406 206.285156 1322.066406 206.96875 1321.644531 207.390625 Z M 1321.644531 207.390625 " fill-opacity="1" fill-rule="nonzero"/></g><path fill="#889ead" d="M 1296.859375 229.550781 L 1320.0625 205.863281 C 1320.484375 205.441406 1321.171875 205.390625 1321.644531 205.863281 C 1321.960938 206.128906 1322.015625 206.546875 1321.960938 206.917969 L 1314.207031 237.867188 C 1314.050781 238.445312 1313.46875 238.816406 1312.835938 238.65625 C 1312.730469 238.65625 1312.679688 238.605469 1312.574219 238.550781 L 1297.175781 231.339844 C 1296.59375 231.078125 1296.382812 230.445312 1296.648438 229.867188 C 1296.699219 229.761719 1296.804688 229.65625 1296.859375 229.550781 Z M 1318.796875 210.339844 L 1299.546875 230.023438 L 1312.363281 236.027344 Z M 1318.796875 210.339844 " fill-opacity="1" fill-rule="nonzero"/><g clip-path="url(#f7daabf3c5)"><path fill="#889ead" d="M 1335.460938 249.238281 L 1299.917969 232.65625 L 1306.246094 246.289062 Z M 1298.125 229.339844 L 1342.265625 249.972656 C 1342.6875 250.132812 1343.003906 250.605469 1342.953125 251.132812 C 1342.898438 251.765625 1342.371094 252.183594 1341.738281 252.132812 L 1305.453125 248.449219 C 1305.03125 248.449219 1304.664062 248.183594 1304.503906 247.816406 L 1296.59375 230.8125 C 1296.488281 230.550781 1296.4375 230.183594 1296.59375 229.867188 C 1296.910156 229.339844 1297.597656 229.078125 1298.125 229.339844 Z M 1298.125 229.339844 " fill-opacity="1" fill-rule="nonzero"/></g><g fill="#d9d9d9" fill-opacity="1"><g transform="translate(111.912633, 206.25641)"><g><path d="M 73.003906 -7.035156 C 74.214844 -7.035156 74.699219 -7.761719 74.699219 -9.457031 L 74.699219 -13.339844 C 74.457031 -18.433594 74.214844 -23.28125 73.972656 -28.132812 C 73.730469 -32.984375 73.246094 -37.835938 73.003906 -42.929688 C 72.273438 -58.207031 72.03125 -73.003906 72.757812 -88.523438 L 74.941406 -131.695312 C 75.183594 -135.332031 75.183594 -139.214844 75.183594 -142.851562 C 75.183594 -146.488281 75.183594 -150.128906 75.425781 -153.765625 C 75.425781 -157.886719 75.425781 -158.132812 79.550781 -159.34375 C 104.773438 -167.832031 130.238281 -174.136719 156.433594 -180.203125 C 158.375 -180.929688 160.3125 -181.414062 162.253906 -182.140625 C 163.953125 -182.871094 164.921875 -184.566406 164.679688 -186.75 C 164.4375 -187.960938 163.464844 -189.175781 162.011719 -190.386719 C 153.765625 -194.996094 135.332031 -196.9375 125.875 -196.9375 C 111.078125 -196.9375 96.285156 -194.996094 82.460938 -189.902344 C 72.515625 -185.78125 72.03125 -177.046875 72.03125 -167.347656 C 72.03125 -161.042969 72.273438 -161.285156 66.453125 -159.34375 C 49.960938 -153.28125 11.15625 -137.515625 0.484375 -123.207031 C -0.484375 -121.507812 0 -119.8125 1.941406 -119.082031 C 2.183594 -118.839844 2.667969 -118.839844 3.152344 -118.839844 C 3.878906 -118.839844 4.367188 -119.082031 5.09375 -119.566406 C 6.304688 -120.054688 6.546875 -120.78125 6.0625 -121.75 C 5.820312 -122.964844 6.0625 -123.933594 7.277344 -124.660156 C 18.675781 -136.058594 53.355469 -149.886719 68.394531 -155.464844 C 69.363281 -155.707031 70.089844 -155.949219 70.335938 -155.949219 C 70.820312 -155.949219 71.0625 -155.949219 71.304688 -155.707031 C 71.546875 -154.976562 71.789062 -154.492188 71.789062 -153.765625 C 71.789062 -153.039062 71.789062 -152.550781 71.789062 -151.824219 C 71.789062 -145.277344 71.546875 -138.972656 71.0625 -132.664062 C 70.578125 -126.117188 70.089844 -119.8125 69.847656 -113.261719 C 69.121094 -103.5625 68.636719 -94.101562 68.394531 -84.644531 C 67.667969 -63.300781 68.152344 -42.441406 69.363281 -21.101562 C 69.605469 -18.917969 69.847656 -16.976562 70.089844 -15.035156 C 70.335938 -13.097656 70.578125 -11.15625 70.335938 -9.214844 C 70.089844 -7.519531 71.304688 -6.789062 73.003906 -7.035156 Z M 76.640625 -163.222656 C 75.914062 -163.222656 75.671875 -163.464844 75.425781 -164.195312 C 75.183594 -169.289062 75.183594 -174.378906 76.882812 -179.230469 C 78.09375 -181.898438 80.035156 -183.839844 82.945312 -185.050781 C 92.890625 -190.386719 115.445312 -192.8125 126.601562 -192.8125 C 137.03125 -192.570312 146.972656 -191.601562 156.433594 -188.691406 C 157.402344 -188.449219 158.375 -187.960938 159.101562 -187.71875 C 159.585938 -187.476562 159.828125 -187.234375 159.828125 -186.75 C 159.828125 -186.265625 159.585938 -186.023438 159.34375 -186.023438 C 156.675781 -185.050781 154.492188 -184.324219 151.824219 -183.597656 C 127.570312 -178.019531 103.5625 -171.957031 80.035156 -164.195312 C 79.550781 -163.953125 79.066406 -163.710938 78.582031 -163.710938 C 78.09375 -163.464844 77.609375 -163.464844 77.367188 -163.222656 Z M 76.640625 -163.222656 "/></g></g></g><g fill="#d9d9d9" fill-opacity="1"><g transform="translate(206.010116, 206.25641)"><g><path d="M -9.703125 -41.230469 C -8.246094 -41.230469 -7.035156 -41.714844 -6.0625 -42.929688 C -4.367188 -44.867188 -2.667969 -47.292969 -0.726562 -50.203125 C 0.484375 -52.386719 1.457031 -54.328125 2.667969 -56.511719 C 3.636719 -58.449219 4.851562 -60.390625 6.0625 -62.574219 C 6.789062 -64.269531 7.035156 -65.484375 8.972656 -66.453125 C 9.214844 -65.242188 9.703125 -64.269531 9.945312 -63.300781 C 10.1875 -62.332031 10.429688 -61.359375 10.671875 -60.632812 C 11.882812 -57.722656 13.824219 -56.265625 16.492188 -56.265625 C 18.675781 -56.265625 20.613281 -57.238281 21.828125 -58.933594 C 24.011719 -61.601562 25.222656 -64.269531 26.195312 -67.425781 C 28.375 -73.246094 29.589844 -79.066406 30.558594 -85.128906 C 30.800781 -86.339844 31.042969 -87.796875 30.800781 -89.007812 C 30.558594 -90.222656 31.042969 -91.191406 32.257812 -91.917969 C 32.984375 -92.648438 34.195312 -92.890625 35.652344 -92.890625 C 39.289062 -92.890625 52.386719 -93.132812 52.386719 -96.769531 C 52.144531 -98.46875 51.175781 -98.226562 49.960938 -98.226562 C 49.234375 -98.226562 48.019531 -97.984375 46.324219 -97.253906 C 42.929688 -96.042969 39.289062 -95.558594 35.167969 -95.558594 C 32.015625 -95.800781 32.015625 -95.558594 31.042969 -98.46875 C 30.316406 -101.378906 29.347656 -105.015625 25.707031 -105.015625 C 24.011719 -105.015625 22.796875 -104.046875 22.3125 -102.347656 C 22.070312 -100.894531 22.070312 -99.679688 22.554688 -98.953125 C 23.28125 -97.984375 24.253906 -96.769531 25.222656 -96.042969 C 27.890625 -94.34375 28.617188 -92.164062 27.890625 -89.25 C 26.195312 -79.792969 24.496094 -70.820312 19.886719 -62.089844 C 19.160156 -61.117188 17.949219 -60.148438 16.976562 -59.421875 C 16.25 -59.179688 15.765625 -58.933594 15.523438 -58.933594 C 14.792969 -58.933594 14.066406 -59.421875 13.824219 -60.148438 C 12.855469 -62.816406 12.855469 -65.484375 13.097656 -68.152344 C 13.097656 -70.089844 13.582031 -72.273438 13.824219 -74.214844 C 13.824219 -75.425781 13.824219 -76.398438 13.582031 -77.125 C 13.339844 -78.335938 12.613281 -78.824219 11.398438 -78.824219 C 10.671875 -78.824219 9.945312 -78.335938 9.703125 -77.609375 L 7.035156 -73.246094 C 5.335938 -70.089844 3.636719 -66.9375 1.941406 -63.785156 C 0.242188 -60.632812 -1.699219 -57.480469 -3.394531 -54.328125 C -4.609375 -51.902344 -6.0625 -49.71875 -7.761719 -47.777344 C -8.003906 -47.292969 -8.488281 -46.808594 -8.730469 -46.324219 C -8.972656 -45.597656 -9.457031 -45.597656 -10.1875 -45.839844 C -10.914062 -46.082031 -11.398438 -46.324219 -11.398438 -47.050781 C -11.15625 -47.535156 -11.15625 -48.019531 -11.398438 -48.507812 C -11.398438 -63.058594 -5.09375 -77.851562 2.425781 -90.222656 C 3.152344 -91.433594 4.121094 -92.648438 5.578125 -93.617188 C 7.277344 -94.585938 8.003906 -96.527344 8.730469 -98.226562 C 8.972656 -98.953125 8.730469 -99.679688 7.761719 -100.410156 C 7.519531 -100.652344 7.035156 -100.894531 6.789062 -100.894531 C 6.546875 -100.894531 6.0625 -100.652344 5.820312 -100.410156 C -0.726562 -95.800781 -9.945312 -74.699219 -12.855469 -66.9375 C -14.550781 -61.117188 -15.765625 -55.054688 -15.523438 -48.992188 C -15.28125 -48.265625 -15.28125 -47.535156 -15.28125 -47.050781 C -15.28125 -46.324219 -15.035156 -45.839844 -14.792969 -45.109375 C -14.066406 -42.441406 -11.882812 -41.230469 -9.703125 -41.230469 Z M 27.40625 -97.496094 C 26.921875 -97.253906 26.4375 -97.496094 25.707031 -98.46875 C 25.464844 -99.195312 25.464844 -99.921875 25.707031 -100.410156 C 25.949219 -100.652344 25.949219 -100.894531 26.195312 -101.136719 C 26.4375 -101.136719 26.4375 -101.136719 26.679688 -101.378906 C 27.164062 -101.378906 27.648438 -101.136719 27.890625 -100.410156 C 27.890625 -100.164062 27.890625 -99.921875 28.132812 -99.679688 C 28.132812 -99.4375 28.132812 -98.953125 28.132812 -98.710938 C 27.890625 -97.984375 27.648438 -97.496094 27.40625 -97.496094 Z M 27.40625 -97.496094 "/></g></g></g><g fill="#d9d9d9" fill-opacity="1"><g transform="translate(252.331283, 206.25641)"><g><path d="M 0.242188 -60.632812 C 1.457031 -60.632812 2.425781 -60.875 3.636719 -61.359375 C 4.367188 -61.601562 4.851562 -62.089844 5.335938 -62.332031 C 5.820312 -62.574219 6.304688 -63.058594 7.035156 -63.300781 C 8.972656 -64.511719 38.5625 -91.917969 38.5625 -95.800781 C 38.320312 -96.769531 37.835938 -98.226562 36.621094 -98.226562 C 36.378906 -98.226562 35.894531 -97.984375 35.652344 -97.742188 C 34.925781 -97.011719 34.441406 -96.285156 33.710938 -95.800781 C 32.984375 -95.074219 32.5 -94.34375 31.773438 -93.617188 L 15.765625 -76.640625 C 12.613281 -73.003906 8.730469 -69.847656 4.367188 -67.179688 C 2.667969 -65.726562 1.210938 -64.757812 -0.484375 -64.511719 L -1.457031 -64.269531 C -2.910156 -64.269531 -3.636719 -65 -3.636719 -66.695312 C -3.878906 -69.121094 -3.636719 -71.789062 -3.152344 -74.457031 C -0.96875 -82.21875 1.941406 -89.496094 6.789062 -96.042969 C 7.277344 -96.769531 7.761719 -97.742188 8.488281 -98.953125 C 9.214844 -99.679688 7.761719 -101.621094 7.035156 -101.621094 C 6.304688 -101.863281 5.578125 -101.378906 5.09375 -100.652344 C -0.96875 -92.164062 -5.820312 -83.429688 -7.519531 -73.003906 C -7.761719 -71.304688 -7.761719 -69.363281 -7.519531 -67.425781 C -6.789062 -63.300781 -3.636719 -60.632812 0.242188 -60.632812 Z M 10.429688 -108.167969 C 10.914062 -107.925781 11.398438 -108.167969 11.882812 -108.65625 C 15.035156 -112.535156 17.460938 -116.902344 20.128906 -121.507812 C 20.371094 -121.75 20.371094 -122.234375 20.371094 -123.207031 C 20.128906 -123.449219 20.128906 -123.691406 20.128906 -123.933594 C 20.128906 -124.175781 19.886719 -124.175781 19.644531 -124.417969 C 19.402344 -124.660156 19.160156 -124.660156 18.917969 -124.660156 C 18.433594 -124.660156 17.949219 -124.417969 17.703125 -123.691406 C 16.976562 -122.480469 16.25 -121.507812 15.765625 -120.296875 C 15.035156 -119.082031 14.308594 -118.113281 13.582031 -116.902344 C 12.613281 -115.203125 11.398438 -113.503906 10.1875 -111.566406 L 9.457031 -110.109375 C 9.214844 -109.382812 9.703125 -108.898438 10.429688 -108.167969 Z M 10.429688 -108.167969 "/></g></g></g><g fill="#d9d9d9" fill-opacity="1"><g transform="translate(284.828857, 206.25641)"><g><path d="M 3.152344 -51.660156 C 4.367188 -51.660156 5.335938 -52.386719 5.578125 -53.84375 C 5.820312 -54.570312 6.304688 -55.78125 6.546875 -57.480469 C 8.003906 -63.785156 15.28125 -94.828125 19.886719 -97.984375 C 20.128906 -97.011719 20.371094 -96.042969 20.128906 -95.074219 C 19.886719 -94.101562 19.886719 -93.132812 19.886719 -92.40625 C 19.160156 -87.070312 19.402344 -81.492188 20.371094 -75.914062 C 21.101562 -72.273438 22.796875 -68.394531 26.921875 -68.394531 C 28.132812 -68.394531 29.105469 -68.636719 30.074219 -69.121094 C 38.804688 -74.699219 47.777344 -86.828125 53.597656 -95.316406 C 53.84375 -95.558594 54.085938 -96.042969 54.085938 -96.285156 C 54.328125 -97.011719 54.085938 -97.984375 53.355469 -98.710938 C 53.113281 -98.953125 52.871094 -98.953125 52.628906 -98.953125 C 52.144531 -98.953125 51.660156 -98.710938 51.175781 -98.226562 C 49.234375 -95.558594 47.292969 -93.132812 45.351562 -90.464844 C 42.199219 -86.097656 32.015625 -74.214844 27.164062 -71.789062 C 26.921875 -71.546875 26.679688 -71.546875 26.195312 -71.546875 C 25.464844 -71.546875 24.980469 -72.03125 24.738281 -73.003906 C 24.011719 -75.425781 23.527344 -77.609375 23.527344 -79.550781 C 22.796875 -88.28125 24.011719 -96.527344 25.222656 -105.015625 L 25.949219 -111.808594 C 25.949219 -113.261719 25.464844 -114.234375 24.738281 -114.960938 C 24.496094 -115.203125 24.253906 -115.445312 23.527344 -115.445312 C 22.796875 -115.445312 22.554688 -115.203125 22.3125 -114.960938 C 16.007812 -105.5 8.488281 -82.460938 5.578125 -71.546875 L 4.121094 -66.695312 L 3.636719 -66.695312 C 3.152344 -67.179688 2.910156 -67.425781 2.910156 -67.425781 L 2.910156 -71.546875 C 4.121094 -86.097656 7.035156 -99.679688 12.855469 -113.261719 L 13.582031 -114.960938 C 13.582031 -115.929688 13.097656 -116.65625 12.125 -117.144531 C 11.882812 -117.144531 11.882812 -117.144531 11.640625 -117.386719 C 11.398438 -117.386719 10.914062 -117.144531 10.1875 -116.414062 L 8.003906 -111.808594 C 5.09375 -104.773438 3.152344 -97.496094 1.457031 -89.980469 C -0.726562 -79.792969 -1.699219 -69.605469 -1.210938 -59.421875 C -1.210938 -57.480469 -1.210938 -55.78125 -0.242188 -53.84375 C 0.242188 -52.386719 1.457031 -51.660156 3.152344 -51.660156 Z M 3.152344 -51.660156 "/></g></g></g><g fill="#d9d9d9" fill-opacity="1"><g transform="translate(332.847675, 206.25641)"><g><path d="M 7.761719 -51.175781 C 15.765625 -51.175781 28.617188 -62.089844 33.710938 -68.394531 C 37.105469 -72.273438 40.261719 -76.398438 43.171875 -80.761719 C 46.082031 -84.886719 48.992188 -89.25 52.144531 -93.375 C 52.871094 -94.101562 53.355469 -95.074219 53.355469 -96.042969 C 53.113281 -97.011719 52.628906 -97.742188 52.386719 -97.984375 C 52.144531 -98.226562 51.902344 -98.226562 51.660156 -98.226562 C 51.417969 -98.226562 50.933594 -97.984375 50.445312 -97.496094 L 46.082031 -92.164062 C 41.472656 -86.097656 37.105469 -79.792969 32.5 -73.730469 C 27.890625 -66.9375 14.066406 -54.570312 5.335938 -54.570312 C 0.242188 -54.570312 -1.210938 -61.117188 -1.210938 -65.242188 C -1.457031 -68.878906 -0.96875 -71.789062 -0.242188 -75.425781 C 2.425781 -87.554688 9.214844 -104.53125 20.128906 -111.078125 C 20.859375 -111.566406 21.828125 -112.050781 22.796875 -112.777344 C 23.527344 -113.261719 24.496094 -113.503906 25.222656 -113.503906 C 25.949219 -113.503906 26.4375 -113.261719 26.679688 -113.019531 C 27.648438 -112.292969 27.890625 -111.078125 27.40625 -109.867188 C 26.679688 -108.65625 26.195312 -107.441406 25.949219 -106.230469 C 25.707031 -104.773438 24.980469 -103.804688 23.527344 -103.320312 C 22.554688 -103.074219 22.3125 -102.589844 22.796875 -102.105469 C 23.039062 -101.621094 23.527344 -101.136719 24.011719 -100.894531 L 24.980469 -100.894531 C 25.949219 -100.894531 26.679688 -101.136719 27.164062 -101.863281 C 29.832031 -104.773438 30.316406 -108.410156 30.316406 -112.050781 C 30.316406 -112.535156 30.074219 -113.503906 29.347656 -114.71875 C 28.375 -116.414062 26.921875 -117.386719 24.980469 -117.386719 C 24.253906 -117.386719 23.769531 -117.386719 23.527344 -117.144531 C 6.789062 -112.777344 -3.394531 -86.582031 -4.851562 -70.578125 C -5.09375 -64.027344 -4.609375 -61.117188 -2.910156 -58.207031 C -0.726562 -53.597656 2.910156 -51.175781 7.761719 -51.175781 Z M 7.761719 -51.175781 "/></g></g></g><g fill="#d9d9d9" fill-opacity="1"><g transform="translate(380.138927, 206.25641)"><g><path d="M 22.796875 -56.023438 C 23.527344 -56.023438 24.496094 -56.265625 25.464844 -56.753906 C 27.648438 -57.722656 29.589844 -59.179688 31.285156 -60.875 C 32.5 -62.089844 33.710938 -63.542969 34.925781 -64.757812 C 36.136719 -65.96875 37.351562 -67.179688 38.5625 -68.394531 C 42.199219 -72.515625 45.839844 -76.640625 48.992188 -81.003906 C 52.144531 -85.371094 55.296875 -89.738281 58.449219 -93.859375 C 58.933594 -94.585938 59.179688 -95.074219 59.421875 -95.800781 C 59.664062 -96.527344 59.664062 -97.253906 58.933594 -97.984375 C 58.691406 -98.226562 58.449219 -98.226562 58.207031 -98.226562 C 57.722656 -98.226562 57.238281 -97.984375 56.996094 -97.742188 L 50.445312 -89.738281 C 47.777344 -86.339844 45.351562 -82.945312 42.929688 -79.792969 C 40.261719 -76.398438 37.59375 -73.246094 34.925781 -70.089844 C 33.46875 -68.152344 24.011719 -59.179688 22.3125 -59.179688 C 21.828125 -59.179688 21.585938 -59.179688 21.34375 -59.421875 C 19.402344 -60.148438 19.644531 -62.089844 19.644531 -63.785156 C 19.402344 -68.636719 20.128906 -73.488281 21.101562 -78.335938 C 23.28125 -89.738281 27.40625 -100.164062 32.5 -110.59375 C 33.226562 -112.050781 34.195312 -113.503906 34.925781 -114.960938 C 35.652344 -116.414062 36.621094 -117.871094 37.351562 -119.566406 C 38.078125 -121.265625 38.320312 -122.722656 37.59375 -123.933594 C 37.351562 -124.902344 36.136719 -125.390625 35.410156 -125.390625 C 34.925781 -125.390625 34.683594 -125.390625 34.441406 -125.148438 C 32.742188 -123.933594 31.527344 -122.964844 30.316406 -121.265625 C 29.105469 -119.566406 27.890625 -118.113281 26.679688 -116.65625 C 25.464844 -114.960938 24.011719 -113.503906 22.796875 -111.808594 C 21.828125 -110.835938 21.101562 -110.351562 20.371094 -110.351562 L 19.402344 -110.59375 C 18.917969 -110.835938 18.191406 -110.835938 17.21875 -110.835938 C 9.703125 -110.835938 2.910156 -99.4375 0.726562 -92.890625 C 0 -91.191406 0 -89.496094 0.242188 -87.3125 C 0.484375 -84.886719 1.941406 -83.671875 4.121094 -83.671875 C 5.09375 -83.671875 6.0625 -83.917969 6.789062 -84.644531 C 8.003906 -85.855469 9.214844 -87.070312 10.429688 -88.523438 C 11.640625 -89.980469 12.613281 -91.433594 13.824219 -92.890625 C 15.765625 -95.558594 17.703125 -97.984375 19.644531 -100.652344 C 21.34375 -103.320312 23.28125 -105.742188 25.222656 -108.410156 C 25.707031 -109.625 26.4375 -110.351562 27.40625 -111.078125 C 27.648438 -111.320312 27.890625 -111.566406 28.132812 -111.566406 C 28.375 -111.566406 28.617188 -111.320312 29.347656 -111.078125 C 24.980469 -108.167969 19.160156 -85.613281 17.949219 -80.519531 C 16.734375 -75.425781 16.007812 -70.335938 16.25 -65.242188 C 16.492188 -64.269531 16.492188 -63.300781 16.734375 -62.332031 C 16.734375 -61.359375 16.976562 -60.390625 17.460938 -59.664062 C 18.675781 -57.238281 20.371094 -56.023438 22.796875 -56.023438 Z M 4.609375 -88.765625 C 4.367188 -89.007812 4.121094 -89.496094 3.878906 -89.738281 L 4.121094 -90.707031 C 5.820312 -97.496094 10.429688 -104.046875 16.976562 -107.199219 C 17.460938 -107.441406 17.949219 -107.199219 18.191406 -106.957031 C 18.191406 -106.230469 18.191406 -105.988281 18.191406 -105.988281 L 13.824219 -99.4375 C 11.15625 -96.285156 8.730469 -92.890625 6.0625 -89.738281 C 5.820312 -89.496094 5.820312 -89.25 5.578125 -89.25 C 5.335938 -89.25 4.851562 -89.007812 4.609375 -88.765625 Z M 4.609375 -88.765625 "/></g></g></g><g fill="#d9d9d9" fill-opacity="1"><g transform="translate(433.493166, 206.25641)"><g><path d="M 6.0625 -4.121094 C 8.972656 -4.121094 10.429688 -5.578125 10.429688 -8.488281 C 10.429688 -9.457031 9.945312 -10.1875 9.214844 -10.429688 C 8.972656 -10.429688 8.972656 -10.429688 8.972656 -10.671875 C 8.730469 -10.671875 8.730469 -10.671875 8.488281 -10.671875 C 8.003906 -10.671875 7.519531 -10.429688 7.277344 -9.945312 C 7.035156 -9.703125 6.789062 -9.214844 6.546875 -8.730469 C 6.304688 -8.246094 6.0625 -8.003906 5.335938 -8.003906 C 2.183594 -11.15625 0.242188 -29.347656 0.242188 -33.953125 C -0.484375 -50.203125 0 -65.96875 2.667969 -82.21875 C 3.636719 -85.855469 4.851562 -89.25 6.546875 -92.890625 C 9.703125 -99.679688 12.855469 -106.230469 16.25 -112.777344 C 19.402344 -119.324219 22.796875 -125.875 26.195312 -132.664062 C 26.921875 -134.363281 28.132812 -135.089844 29.589844 -135.089844 C 29.832031 -135.089844 30.074219 -135.089844 30.316406 -135.089844 C 30.316406 -134.847656 30.558594 -134.847656 30.800781 -134.847656 C 40.746094 -133.148438 54.8125 -131.695312 65.242188 -131.695312 C 73.003906 -131.695312 81.003906 -132.421875 88.039062 -136.058594 C 89.738281 -136.789062 89.980469 -138.726562 89.007812 -140.425781 C 88.765625 -140.910156 88.523438 -141.152344 88.039062 -141.152344 C 87.796875 -141.152344 87.554688 -140.910156 87.3125 -140.667969 C 87.070312 -140.425781 86.582031 -140.183594 86.339844 -139.941406 C 85.613281 -139.699219 84.644531 -139.457031 83.917969 -139.214844 C 83.1875 -138.972656 82.21875 -138.484375 81.492188 -138.242188 C 75.914062 -137.03125 70.335938 -136.304688 65 -136.304688 C 64.269531 -136.304688 63.300781 -136.304688 62.574219 -136.304688 C 61.601562 -136.304688 60.632812 -136.304688 59.90625 -136.546875 C 56.265625 -136.789062 52.871094 -137.273438 49.476562 -137.515625 C 45.839844 -137.757812 42.441406 -138 39.046875 -138.242188 C 38.320312 -138.484375 37.59375 -138.484375 36.863281 -138.484375 C 36.136719 -138.484375 35.167969 -138.726562 34.441406 -138.972656 C 33.710938 -139.214844 32.984375 -139.214844 32.257812 -139.214844 C 31.527344 -139.214844 31.042969 -139.457031 30.316406 -140.183594 C 30.558594 -141.152344 30.800781 -142.125 31.285156 -142.851562 C 31.527344 -143.578125 32.015625 -144.304688 32.257812 -145.035156 C 35.410156 -152.550781 38.320312 -159.585938 40.988281 -167.347656 C 41.230469 -168.558594 41.714844 -170.015625 42.199219 -171.46875 C 42.441406 -172.683594 42.6875 -174.136719 42.6875 -175.59375 C 42.929688 -177.289062 42.6875 -178.988281 41.957031 -180.445312 C 41.472656 -181.898438 40.503906 -182.625 39.046875 -182.625 C 30.800781 -182.625 18.191406 -154.976562 14.792969 -145.761719 C 13.582031 -142.851562 13.097656 -141.882812 11.15625 -141.882812 C 10.1875 -141.882812 9.214844 -141.882812 8.488281 -142.125 C 0.96875 -143.335938 -6.0625 -144.0625 -12.855469 -144.0625 C -24.980469 -144.0625 -47.777344 -142.125 -57.722656 -135.332031 C -58.933594 -134.605469 -59.179688 -133.636719 -58.691406 -132.421875 C -58.449219 -130.726562 -57.480469 -129.996094 -55.296875 -129.996094 C -54.085938 -129.996094 -53.355469 -130.480469 -53.113281 -131.453125 C -52.386719 -139.214844 -16.492188 -139.699219 -13.097656 -139.699219 C -9.214844 -139.699219 8.246094 -139.214844 10.671875 -136.789062 C 11.398438 -135.574219 10.914062 -134.605469 10.1875 -133.394531 C 3.636719 -111.078125 -0.96875 -90.464844 -3.152344 -67.179688 C -4.121094 -52.628906 -4.609375 -38.5625 -2.910156 -24.011719 C -2.183594 -19.402344 -1.457031 -15.765625 -0.242188 -11.15625 C 0.484375 -8.972656 0.96875 -7.035156 2.910156 -5.335938 C 3.636719 -4.609375 4.851562 -4.121094 6.0625 -4.121094 Z M 7.035156 -104.773438 C 7.035156 -104.773438 7.035156 -105.015625 6.789062 -105.257812 C 6.789062 -108.65625 11.640625 -127.328125 13.824219 -132.179688 C 14.066406 -132.421875 14.066406 -132.90625 14.308594 -133.394531 C 14.550781 -133.878906 14.550781 -134.363281 14.792969 -134.847656 C 15.28125 -136.058594 16.25 -136.546875 17.460938 -136.546875 L 21.828125 -135.816406 C 22.070312 -135.816406 22.3125 -135.816406 22.3125 -135.574219 C 22.3125 -135.332031 22.3125 -135.332031 22.554688 -135.089844 L 22.554688 -134.121094 L 9.457031 -107.441406 L 8.003906 -105.015625 C 7.761719 -104.773438 7.519531 -104.773438 7.035156 -104.773438 Z M 23.28125 -140.425781 C 21.585938 -140.425781 20.613281 -140.425781 20.128906 -140.667969 C 18.191406 -140.910156 17.460938 -141.882812 18.191406 -143.820312 C 21.828125 -153.28125 25.707031 -162.011719 31.773438 -170.5 C 33.46875 -173.167969 35.410156 -175.835938 38.078125 -177.777344 C 38.804688 -177.777344 39.046875 -177.777344 39.046875 -177.777344 C 39.289062 -177.777344 39.53125 -177.535156 39.53125 -177.046875 C 39.289062 -176.320312 39.289062 -175.351562 39.289062 -174.625 C 39.289062 -173.652344 39.046875 -172.683594 38.804688 -171.957031 C 35.652344 -162.011719 31.773438 -152.550781 27.164062 -143.09375 C 26.4375 -141.394531 24.980469 -140.425781 23.28125 -140.425781 Z M 23.28125 -140.425781 "/></g></g></g><g fill="#d9d9d9" fill-opacity="1"><g transform="translate(337.026436, 231.278048)"><g><path d="M 24.640625 -55.65625 L 3.390625 -55.65625 L 3.390625 -69.8125 L 61.234375 -69.8125 L 61.234375 -55.65625 L 40 -55.65625 L 40 0 L 24.640625 0 Z M 24.640625 -55.65625 "/></g></g></g><g fill="#d9d9d9" fill-opacity="1"><g transform="translate(471.47671, 231.278048)"><g><path d="M 8.375 -69.8125 L 61.03125 -69.8125 L 61.03125 -56.15625 L 23.640625 -56.15625 L 23.640625 -41.984375 L 56.546875 -41.984375 L 56.546875 -28.328125 L 23.640625 -28.328125 L 23.640625 -13.65625 L 61.53125 -13.65625 L 61.53125 0 L 8.375 0 Z M 8.375 -69.8125 "/></g></g></g><g fill="#d9d9d9" fill-opacity="1"><g transform="translate(608.121235, 231.278048)"><g><path d="M 41.09375 1.203125 C 35.96875 1.203125 31.210938 0.269531 26.828125 -1.59375 C 22.441406 -3.457031 18.648438 -6 15.453125 -9.21875 C 12.265625 -12.445312 9.769531 -16.253906 7.96875 -20.640625 C 6.175781 -25.035156 5.28125 -29.722656 5.28125 -34.703125 L 5.28125 -34.90625 C 5.28125 -39.894531 6.175781 -44.566406 7.96875 -48.921875 C 9.769531 -53.273438 12.265625 -57.097656 15.453125 -60.390625 C 18.648438 -63.679688 22.472656 -66.273438 26.921875 -68.171875 C 31.378906 -70.066406 36.300781 -71.015625 41.6875 -71.015625 C 44.945312 -71.015625 47.921875 -70.75 50.609375 -70.21875 C 53.304688 -69.6875 55.75 -68.953125 57.9375 -68.015625 C 60.132812 -67.085938 62.164062 -65.957031 64.03125 -64.625 C 65.894531 -63.300781 67.625 -61.835938 69.21875 -60.234375 L 59.4375 -48.96875 C 56.71875 -51.425781 53.941406 -53.351562 51.109375 -54.75 C 48.285156 -56.144531 45.113281 -56.84375 41.59375 -56.84375 C 38.664062 -56.84375 35.953125 -56.273438 33.453125 -55.140625 C 30.960938 -54.015625 28.816406 -52.453125 27.015625 -50.453125 C 25.222656 -48.460938 23.828125 -46.15625 22.828125 -43.53125 C 21.835938 -40.90625 21.34375 -38.097656 21.34375 -35.109375 L 21.34375 -34.90625 C 21.34375 -31.914062 21.835938 -29.085938 22.828125 -26.421875 C 23.828125 -23.765625 25.207031 -21.4375 26.96875 -19.4375 C 28.738281 -17.445312 30.867188 -15.867188 33.359375 -14.703125 C 35.847656 -13.546875 38.59375 -12.96875 41.59375 -12.96875 C 45.582031 -12.96875 48.953125 -13.695312 51.703125 -15.15625 C 54.460938 -16.625 57.207031 -18.617188 59.9375 -21.140625 L 69.71875 -11.265625 C 67.914062 -9.335938 66.050781 -7.609375 64.125 -6.078125 C 62.195312 -4.554688 60.085938 -3.242188 57.796875 -2.140625 C 55.503906 -1.046875 52.992188 -0.21875 50.265625 0.34375 C 47.535156 0.914062 44.476562 1.203125 41.09375 1.203125 Z M 41.09375 1.203125 "/></g></g></g><g fill="#d9d9d9" fill-opacity="1"><g transform="translate(751.547994, 231.278048)"><g><path d="M 8.375 -69.8125 L 23.734375 -69.8125 L 23.734375 -42.1875 L 52.0625 -42.1875 L 52.0625 -69.8125 L 67.421875 -69.8125 L 67.421875 0 L 52.0625 0 L 52.0625 -28.03125 L 23.734375 -28.03125 L 23.734375 0 L 8.375 0 Z M 8.375 -69.8125 "/></g></g></g><g fill="#d9d9d9" fill-opacity="1"><g transform="translate(897.16901, 231.278048)"><g><path d="M 8.375 -69.8125 L 22.546875 -69.8125 L 55.25 -26.828125 L 55.25 -69.8125 L 70.40625 -69.8125 L 70.40625 0 L 57.34375 0 L 23.53125 -44.375 L 23.53125 0 L 8.375 0 Z M 8.375 -69.8125 "/></g></g></g><g fill="#d9d9d9" fill-opacity="1"><g transform="translate(1045.782206, 231.278048)"><g><path d="M 9.078125 -69.8125 L 24.4375 -69.8125 L 24.4375 0 L 9.078125 0 Z M 9.078125 -69.8125 "/></g></g></g><g fill="#d9d9d9" fill-opacity="1"><g transform="translate(1149.113989, 231.278048)"><g><path d="M 8.375 -69.8125 L 23.734375 -69.8125 L 23.734375 -39.296875 L 51.859375 -69.8125 L 70.71875 -69.8125 L 42.1875 -40.1875 L 71.90625 0 L 53.453125 0 L 31.8125 -29.71875 L 23.734375 -21.34375 L 23.734375 0 L 8.375 0 Z M 8.375 -69.8125 "/></g></g></g></svg>